<svg width="570" height="380" viewBox="0 0 570 380" fill="none" xmlns="http://www.w3.org/2000/svg">
<g clip-path="url(#clip0_3713_6097)">
<g opacity="0.5" filter="url(#filter0_f_3713_6097)">
<path d="M537 301H33V352.77C82.5576 339.062 176.657 329.807 284.587 329.807C393.12 329.807 487.668 339.165 537 353V301Z" fill="#142C73"/>
</g>
<path d="M0 16C0 7.16344 7.16344 0 16 0H554C562.837 0 570 7.16344 570 16V318C570 326.837 562.837 334 554 334H16C7.16343 334 0 326.837 0 318V16Z" fill="#FFD701"/>
<path d="M311.691 161.656V181.474C307.551 183.454 302.745 184.444 297.273 184.444C291.117 184.444 286.095 182.572 282.207 178.828C278.319 175.084 276.375 170.224 276.375 164.248C276.375 158.236 278.319 153.412 282.207 149.776C286.131 146.104 291.099 144.268 297.111 144.268C300.063 144.268 302.817 144.7 305.373 145.564C307.965 146.428 310.053 147.598 311.637 149.074L306.939 154.15C305.931 153.034 304.545 152.116 302.781 151.396C301.017 150.64 299.145 150.262 297.165 150.262C293.205 150.262 290.001 151.594 287.553 154.258C285.105 156.922 283.881 160.252 283.881 164.248C283.881 168.388 285.105 171.772 287.553 174.4C290.037 177.028 293.349 178.342 297.489 178.342C300.405 178.342 302.943 177.892 305.103 176.992V167.272H297.057V161.656H311.691Z" fill="#142C73"/>
<path d="M319.761 183.472V157.552H326.241V183.472H319.761ZM320.031 151.504C319.239 150.712 318.843 149.794 318.843 148.75C318.843 147.706 319.239 146.806 320.031 146.05C320.823 145.258 321.795 144.862 322.947 144.862C324.135 144.862 325.125 145.24 325.917 145.996C326.745 146.716 327.159 147.634 327.159 148.75C327.159 149.866 326.745 150.802 325.917 151.558C325.125 152.278 324.135 152.638 322.947 152.638C321.795 152.638 320.823 152.26 320.031 151.504Z" fill="#142C73"/>
<path d="M335.128 183.472V162.736H330.214V157.552H335.128V153.718C335.128 150.226 335.938 147.4 337.558 145.24C339.178 143.08 341.86 142 345.604 142C346.9 142 347.998 142.126 348.898 142.378L348.466 147.886C347.638 147.634 346.81 147.508 345.982 147.508C343.066 147.508 341.608 149.452 341.608 153.34V157.552H347.602V162.736H341.608V183.472H335.128Z" fill="#142C73"/>
<path d="M351.629 162.736H347.093V157.552H351.629V150.046H358.001V157.552H364.481V162.736H358.001V174.778C358.001 176.074 358.235 177.064 358.703 177.748C359.171 178.432 360.071 178.774 361.403 178.774C362.519 178.774 363.437 178.594 364.157 178.234L364.373 183.31C363.149 183.778 361.709 184.012 360.053 184.012C356.885 184.012 354.689 183.202 353.465 181.582C352.241 179.926 351.629 177.676 351.629 174.832V162.736Z" fill="#142C73"/>
<path d="M415.772 150.1L410.588 154.204C409.652 152.908 408.374 151.936 406.754 151.288C405.17 150.604 403.55 150.262 401.894 150.262C398.006 150.262 394.82 151.594 392.336 154.258C389.888 156.922 388.664 160.252 388.664 164.248C388.664 168.424 389.834 171.826 392.174 174.454C394.55 177.046 397.7 178.342 401.624 178.342C405.656 178.342 408.752 176.866 410.912 173.914L416.366 177.748C412.802 182.212 407.87 184.444 401.57 184.444C395.594 184.444 390.698 182.572 386.882 178.828C383.066 175.048 381.158 170.188 381.158 164.248C381.158 158.236 383.102 153.412 386.99 149.776C390.914 146.104 395.882 144.268 401.894 144.268C404.558 144.268 407.168 144.772 409.724 145.78C412.316 146.752 414.332 148.192 415.772 150.1Z" fill="#142C73"/>
<path d="M435.413 183.472V180.178H435.251C434.603 181.33 433.541 182.284 432.065 183.04C430.625 183.76 429.005 184.12 427.205 184.12C424.721 184.12 422.471 183.472 420.455 182.176C418.475 180.844 417.485 178.81 417.485 176.074C417.485 174.598 417.845 173.32 418.565 172.24C419.321 171.124 420.257 170.26 421.373 169.648C422.489 169.036 423.875 168.55 425.531 168.19C427.223 167.794 428.807 167.542 430.283 167.434C431.795 167.326 433.469 167.272 435.305 167.272V166.624C435.305 165.112 434.747 163.942 433.631 163.114C432.515 162.286 431.093 161.872 429.365 161.872C426.629 161.872 424.271 162.862 422.291 164.842L418.943 160.9C421.895 158.164 425.549 156.796 429.905 156.796C432.137 156.796 434.027 157.12 435.575 157.768C437.159 158.38 438.365 159.244 439.193 160.36C440.021 161.44 440.597 162.592 440.921 163.816C441.281 165.004 441.461 166.3 441.461 167.704V183.472H435.413ZM435.305 172.564V171.646H433.847C427.259 171.646 423.965 173.086 423.965 175.966C423.965 177.118 424.397 177.946 425.261 178.45C426.161 178.954 427.241 179.206 428.501 179.206C430.697 179.206 432.371 178.63 433.523 177.478C434.711 176.29 435.305 174.652 435.305 172.564Z" fill="#142C73"/>
<path d="M449.01 183.472V157.552H455.22V161.872H455.328C456.048 160.324 457.074 159.1 458.406 158.2C459.738 157.264 461.232 156.796 462.888 156.796C463.5 156.796 464.022 156.85 464.454 156.958V162.898C463.734 162.718 463.068 162.628 462.456 162.628C461.34 162.628 460.35 162.808 459.486 163.168C458.622 163.528 457.938 163.978 457.434 164.518C456.966 165.058 456.57 165.67 456.246 166.354C455.958 167.002 455.76 167.596 455.652 168.136C455.544 168.676 455.49 169.162 455.49 169.594V183.472H449.01Z" fill="#142C73"/>
<path d="M494.083 142.648V183.472H487.927V179.584H487.819C486.955 181.06 485.713 182.212 484.093 183.04C482.473 183.832 480.745 184.228 478.909 184.228C475.057 184.228 471.961 182.896 469.621 180.232C467.317 177.568 466.165 174.292 466.165 170.404C466.165 166.516 467.335 163.276 469.675 160.684C472.051 158.092 475.075 156.796 478.747 156.796C482.383 156.796 485.281 158.146 487.441 160.846H487.603V142.648H494.083ZM474.697 164.572C473.401 166.228 472.753 168.172 472.753 170.404C472.753 172.636 473.401 174.598 474.697 176.29C476.029 177.982 477.865 178.828 480.205 178.828C482.473 178.828 484.309 177.982 485.713 176.29C487.117 174.598 487.819 172.672 487.819 170.512C487.819 168.352 487.117 166.408 485.713 164.68C484.309 162.952 482.473 162.088 480.205 162.088C477.865 162.088 476.029 162.916 474.697 164.572Z" fill="#142C73"/>
<path fill-rule="evenodd" clip-rule="evenodd" d="M188.672 78.442C174.559 88.0181 164.211 99.1848 157 108.56C149.788 99.1848 139.44 88.0181 125.327 78.442C114.087 70.8151 88.2592 61.4243 83.5131 79.017C77.998 99.4603 118.096 110.959 148.413 117L157 118L165.587 117C195.903 110.959 236.001 99.4603 230.486 79.017C225.74 61.4243 199.912 70.8151 188.672 78.442ZM193.164 85.0618C182.312 92.4254 173.808 100.81 167.336 108.479C178.309 106.195 190.144 103.223 200.302 99.4192C208.771 96.2483 215.305 92.7728 219.236 89.1871C222.938 85.8096 223.376 83.3767 222.762 81.1007C222.175 78.923 221.237 78.1745 220.238 77.7235C218.851 77.0972 216.499 76.7552 213.048 77.205C206.115 78.1086 198.015 81.7702 193.164 85.0618ZM120.835 85.0618C131.687 92.4254 140.191 100.81 146.663 108.479C135.69 106.195 123.855 103.223 113.697 99.4192C105.228 96.2483 98.6942 92.7728 94.7635 89.1871C91.0611 85.8096 90.623 83.3767 91.237 81.1007C91.8245 78.923 92.7627 78.1745 93.7612 77.7235C95.1479 77.0972 97.4998 76.7552 100.951 77.205C107.884 78.1086 115.984 81.7702 120.835 85.0618Z" fill="#142C73"/>
<path d="M71 118C68.7909 118 67 119.791 67 122V154C67 156.209 68.7909 158 71 158H77V260C77 262.209 78.7909 264 81 264H233C235.209 264 237 262.209 237 260V158H243C245.209 158 247 156.209 247 154V122C247 119.791 245.209 118 243 118H71Z" fill="white"/>
<rect x="153" y="118" width="8" height="146" fill="#142C73"/>
<path d="M237 158V166L77 166L77 158L237 158Z" fill="#142C73"/>
</g>
<defs>
<filter id="filter0_f_3713_6097" x="3" y="271" width="564" height="112" filterUnits="userSpaceOnUse" color-interpolation-filters="sRGB">
<feFlood flood-opacity="0" result="BackgroundImageFix"/>
<feBlend mode="normal" in="SourceGraphic" in2="BackgroundImageFix" result="shape"/>
<feGaussianBlur stdDeviation="15" result="effect1_foregroundBlur_3713_6097"/>
</filter>
<clipPath id="clip0_3713_6097">
<rect width="570" height="380" fill="white"/>
</clipPath>
</defs>
</svg>
